G04 #@! TF.GenerationSoftware,KiCad,Pcbnew,5.0.2-bee76a0~70~ubuntu18.04.1*
G04 #@! TF.CreationDate,2019-01-05T16:01:42+00:00*
G04 #@! TF.ProjectId,OpenHardwareHolterMonitor,4f70656e-4861-4726-9477-617265486f6c,rev?*
G04 #@! TF.SameCoordinates,Original*
G04 #@! TF.FileFunction,Legend,Bot*
G04 #@! TF.FilePolarity,Positive*
%FSLAX46Y46*%
G04 Gerber Fmt 4.6, Leading zero omitted, Abs format (unit mm)*
G04 Created by KiCad (PCBNEW 5.0.2-bee76a0~70~ubuntu18.04.1) date Sat 05 Jan 2019 04:01:42 PM GMT*
%MOMM*%
%LPD*%
G01*
G04 APERTURE LIST*
%ADD10C,0.150000*%
%ADD11C,0.120000*%
G04 APERTURE END LIST*
D10*
G04 #@! TO.C,BT2*
X226000000Y-21000000D02*
X204000000Y-21000000D01*
X226000000Y-99000000D02*
X226000000Y-21000000D01*
X204000000Y-99000000D02*
X226000000Y-99000000D01*
X204000000Y-21000000D02*
X204000000Y-99000000D01*
G04 #@! TO.C,BT1*
X203000000Y-21000000D02*
X181000000Y-21000000D01*
X203000000Y-99000000D02*
X203000000Y-21000000D01*
X181000000Y-99000000D02*
X203000000Y-99000000D01*
X181000000Y-21000000D02*
X181000000Y-99000000D01*
D11*
G04 #@! TO.C,J1*
X139930000Y-46100000D02*
X139930000Y-47230000D01*
X140690000Y-46100000D02*
X139930000Y-46100000D01*
X139995000Y-48807530D02*
X139995000Y-49630000D01*
X139995000Y-47990000D02*
X139995000Y-48192470D01*
X140126529Y-47990000D02*
X139995000Y-47990000D01*
X141396529Y-47990000D02*
X141253471Y-47990000D01*
X141450000Y-47793471D02*
X141450000Y-47936529D01*
X141450000Y-46100000D02*
X141450000Y-46666529D01*
X139995000Y-49630000D02*
X147735000Y-49630000D01*
X141450000Y-46100000D02*
X147735000Y-46100000D01*
X147735000Y-47537530D02*
X147735000Y-48192470D01*
X147735000Y-48807530D02*
X147735000Y-49630000D01*
X147735000Y-46100000D02*
X147735000Y-46922470D01*
D10*
G04 #@! TO.C,U7*
X153840000Y-40220000D02*
X153840000Y-73240000D01*
X174160000Y-40220000D02*
X153840000Y-40220000D01*
X174160000Y-73240000D02*
X174160000Y-40220000D01*
X153840000Y-73240000D02*
X174160000Y-73240000D01*
G04 #@! TO.C,J2*
X260400000Y-25700000D02*
X260400000Y-27800000D01*
X258000000Y-25700000D02*
X260400000Y-25700000D01*
X260400000Y-22300000D02*
X258000000Y-22300000D01*
X260400000Y-20200000D02*
X260400000Y-22300000D01*
X269500000Y-27800000D02*
X260400000Y-27800000D01*
X269500000Y-20200000D02*
X269500000Y-27800000D01*
X260400000Y-20200000D02*
X269500000Y-20200000D01*
X258000000Y-22300000D02*
G75*
G03X258000000Y-25700000I0J-1700000D01*
G01*
G04 #@! TO.C,J4*
X260400000Y-41700000D02*
X260400000Y-43800000D01*
X258000000Y-41700000D02*
X260400000Y-41700000D01*
X260400000Y-38300000D02*
X258000000Y-38300000D01*
X260400000Y-36200000D02*
X260400000Y-38300000D01*
X269500000Y-43800000D02*
X260400000Y-43800000D01*
X269500000Y-36200000D02*
X269500000Y-43800000D01*
X260400000Y-36200000D02*
X269500000Y-36200000D01*
X258000000Y-38300000D02*
G75*
G03X258000000Y-41700000I0J-1700000D01*
G01*
G04 #@! TO.C,J5*
X260400000Y-49700000D02*
X260400000Y-51800000D01*
X258000000Y-49700000D02*
X260400000Y-49700000D01*
X260400000Y-46300000D02*
X258000000Y-46300000D01*
X260400000Y-44200000D02*
X260400000Y-46300000D01*
X269500000Y-51800000D02*
X260400000Y-51800000D01*
X269500000Y-44200000D02*
X269500000Y-51800000D01*
X260400000Y-44200000D02*
X269500000Y-44200000D01*
X258000000Y-46300000D02*
G75*
G03X258000000Y-49700000I0J-1700000D01*
G01*
G04 #@! TO.C,J6*
X260400000Y-57700000D02*
X260400000Y-59800000D01*
X258000000Y-57700000D02*
X260400000Y-57700000D01*
X260400000Y-54300000D02*
X258000000Y-54300000D01*
X260400000Y-52200000D02*
X260400000Y-54300000D01*
X269500000Y-59800000D02*
X260400000Y-59800000D01*
X269500000Y-52200000D02*
X269500000Y-59800000D01*
X260400000Y-52200000D02*
X269500000Y-52200000D01*
X258000000Y-54300000D02*
G75*
G03X258000000Y-57700000I0J-1700000D01*
G01*
G04 #@! TO.C,J7*
X260400000Y-65700000D02*
X260400000Y-67800000D01*
X258000000Y-65700000D02*
X260400000Y-65700000D01*
X260400000Y-62300000D02*
X258000000Y-62300000D01*
X260400000Y-60200000D02*
X260400000Y-62300000D01*
X269500000Y-67800000D02*
X260400000Y-67800000D01*
X269500000Y-60200000D02*
X269500000Y-67800000D01*
X260400000Y-60200000D02*
X269500000Y-60200000D01*
X258000000Y-62300000D02*
G75*
G03X258000000Y-65700000I0J-1700000D01*
G01*
G04 #@! TO.C,J8*
X260400000Y-73700000D02*
X260400000Y-75800000D01*
X258000000Y-73700000D02*
X260400000Y-73700000D01*
X260400000Y-70300000D02*
X258000000Y-70300000D01*
X260400000Y-68200000D02*
X260400000Y-70300000D01*
X269500000Y-75800000D02*
X260400000Y-75800000D01*
X269500000Y-68200000D02*
X269500000Y-75800000D01*
X260400000Y-68200000D02*
X269500000Y-68200000D01*
X258000000Y-70300000D02*
G75*
G03X258000000Y-73700000I0J-1700000D01*
G01*
G04 #@! TO.C,J9*
X260400000Y-81700000D02*
X260400000Y-83800000D01*
X258000000Y-81700000D02*
X260400000Y-81700000D01*
X260400000Y-78300000D02*
X258000000Y-78300000D01*
X260400000Y-76200000D02*
X260400000Y-78300000D01*
X269500000Y-83800000D02*
X260400000Y-83800000D01*
X269500000Y-76200000D02*
X269500000Y-83800000D01*
X260400000Y-76200000D02*
X269500000Y-76200000D01*
X258000000Y-78300000D02*
G75*
G03X258000000Y-81700000I0J-1700000D01*
G01*
G04 #@! TO.C,J11*
X260400000Y-97700000D02*
X260400000Y-99800000D01*
X258000000Y-97700000D02*
X260400000Y-97700000D01*
X260400000Y-94300000D02*
X258000000Y-94300000D01*
X260400000Y-92200000D02*
X260400000Y-94300000D01*
X269500000Y-99800000D02*
X260400000Y-99800000D01*
X269500000Y-92200000D02*
X269500000Y-99800000D01*
X260400000Y-92200000D02*
X269500000Y-92200000D01*
X258000000Y-94300000D02*
G75*
G03X258000000Y-97700000I0J-1700000D01*
G01*
D11*
G04 #@! TO.C,R24*
X251360000Y-76740000D02*
X251360000Y-83260000D01*
X251360000Y-83260000D02*
X231240000Y-83260000D01*
X231240000Y-83260000D02*
X231240000Y-76740000D01*
X231240000Y-76740000D02*
X251360000Y-76740000D01*
X252620000Y-80000000D02*
X251360000Y-80000000D01*
X229980000Y-80000000D02*
X231240000Y-80000000D01*
G04 #@! TO.C,R25*
X251360000Y-84740000D02*
X251360000Y-91260000D01*
X251360000Y-91260000D02*
X231240000Y-91260000D01*
X231240000Y-91260000D02*
X231240000Y-84740000D01*
X231240000Y-84740000D02*
X251360000Y-84740000D01*
X252620000Y-88000000D02*
X251360000Y-88000000D01*
X229980000Y-88000000D02*
X231240000Y-88000000D01*
G04 #@! TO.C,R26*
X251360000Y-92740000D02*
X251360000Y-99260000D01*
X251360000Y-99260000D02*
X231240000Y-99260000D01*
X231240000Y-99260000D02*
X231240000Y-92740000D01*
X231240000Y-92740000D02*
X251360000Y-92740000D01*
X252620000Y-96000000D02*
X251360000Y-96000000D01*
X229980000Y-96000000D02*
X231240000Y-96000000D01*
G04 #@! TO.C,R17*
X251360000Y-20740000D02*
X251360000Y-27260000D01*
X251360000Y-27260000D02*
X231240000Y-27260000D01*
X231240000Y-27260000D02*
X231240000Y-20740000D01*
X231240000Y-20740000D02*
X251360000Y-20740000D01*
X252620000Y-24000000D02*
X251360000Y-24000000D01*
X229980000Y-24000000D02*
X231240000Y-24000000D01*
G04 #@! TO.C,R18*
X251360000Y-28740000D02*
X251360000Y-35260000D01*
X251360000Y-35260000D02*
X231240000Y-35260000D01*
X231240000Y-35260000D02*
X231240000Y-28740000D01*
X231240000Y-28740000D02*
X251360000Y-28740000D01*
X252620000Y-32000000D02*
X251360000Y-32000000D01*
X229980000Y-32000000D02*
X231240000Y-32000000D01*
G04 #@! TO.C,R19*
X251360000Y-36740000D02*
X251360000Y-43260000D01*
X251360000Y-43260000D02*
X231240000Y-43260000D01*
X231240000Y-43260000D02*
X231240000Y-36740000D01*
X231240000Y-36740000D02*
X251360000Y-36740000D01*
X252620000Y-40000000D02*
X251360000Y-40000000D01*
X229980000Y-40000000D02*
X231240000Y-40000000D01*
G04 #@! TO.C,R20*
X251360000Y-44740000D02*
X251360000Y-51260000D01*
X251360000Y-51260000D02*
X231240000Y-51260000D01*
X231240000Y-51260000D02*
X231240000Y-44740000D01*
X231240000Y-44740000D02*
X251360000Y-44740000D01*
X252620000Y-48000000D02*
X251360000Y-48000000D01*
X229980000Y-48000000D02*
X231240000Y-48000000D01*
G04 #@! TO.C,R21*
X251360000Y-52740000D02*
X251360000Y-59260000D01*
X251360000Y-59260000D02*
X231240000Y-59260000D01*
X231240000Y-59260000D02*
X231240000Y-52740000D01*
X231240000Y-52740000D02*
X251360000Y-52740000D01*
X252620000Y-56000000D02*
X251360000Y-56000000D01*
X229980000Y-56000000D02*
X231240000Y-56000000D01*
G04 #@! TO.C,R22*
X251360000Y-60740000D02*
X251360000Y-67260000D01*
X251360000Y-67260000D02*
X231240000Y-67260000D01*
X231240000Y-67260000D02*
X231240000Y-60740000D01*
X231240000Y-60740000D02*
X251360000Y-60740000D01*
X252620000Y-64000000D02*
X251360000Y-64000000D01*
X229980000Y-64000000D02*
X231240000Y-64000000D01*
G04 #@! TO.C,R23*
X251360000Y-68740000D02*
X251360000Y-75260000D01*
X251360000Y-75260000D02*
X231240000Y-75260000D01*
X231240000Y-75260000D02*
X231240000Y-68740000D01*
X231240000Y-68740000D02*
X251360000Y-68740000D01*
X252620000Y-72000000D02*
X251360000Y-72000000D01*
X229980000Y-72000000D02*
X231240000Y-72000000D01*
D10*
G04 #@! TO.C,J10*
X260400000Y-89700000D02*
X260400000Y-91800000D01*
X258000000Y-89700000D02*
X260400000Y-89700000D01*
X260400000Y-86300000D02*
X258000000Y-86300000D01*
X260400000Y-84200000D02*
X260400000Y-86300000D01*
X269500000Y-91800000D02*
X260400000Y-91800000D01*
X269500000Y-84200000D02*
X269500000Y-91800000D01*
X260400000Y-84200000D02*
X269500000Y-84200000D01*
X258000000Y-86300000D02*
G75*
G03X258000000Y-89700000I0J-1700000D01*
G01*
G04 #@! TO.C,J3*
X260400000Y-33700000D02*
X260400000Y-35800000D01*
X258000000Y-33700000D02*
X260400000Y-33700000D01*
X260400000Y-30300000D02*
X258000000Y-30300000D01*
X260400000Y-28200000D02*
X260400000Y-30300000D01*
X269500000Y-35800000D02*
X260400000Y-35800000D01*
X269500000Y-28200000D02*
X269500000Y-35800000D01*
X260400000Y-28200000D02*
X269500000Y-28200000D01*
X258000000Y-30300000D02*
G75*
G03X258000000Y-33700000I0J-1700000D01*
G01*
D11*
G04 #@! TO.C,P1*
X173830000Y-20670000D02*
X172500000Y-20670000D01*
X173830000Y-22000000D02*
X173830000Y-20670000D01*
X173830000Y-23270000D02*
X171170000Y-23270000D01*
X171170000Y-23270000D02*
X171170000Y-38570000D01*
X173830000Y-23270000D02*
X173830000Y-38570000D01*
X173830000Y-38570000D02*
X171170000Y-38570000D01*
G04 #@! TO.C,BT2*
D10*
X215428571Y-59214285D02*
X215476190Y-59357142D01*
X215523809Y-59404761D01*
X215619047Y-59452380D01*
X215761904Y-59452380D01*
X215857142Y-59404761D01*
X215904761Y-59357142D01*
X215952380Y-59261904D01*
X215952380Y-58880952D01*
X214952380Y-58880952D01*
X214952380Y-59214285D01*
X215000000Y-59309523D01*
X215047619Y-59357142D01*
X215142857Y-59404761D01*
X215238095Y-59404761D01*
X215333333Y-59357142D01*
X215380952Y-59309523D01*
X215428571Y-59214285D01*
X215428571Y-58880952D01*
X214952380Y-59738095D02*
X214952380Y-60309523D01*
X215952380Y-60023809D02*
X214952380Y-60023809D01*
X215047619Y-60595238D02*
X215000000Y-60642857D01*
X214952380Y-60738095D01*
X214952380Y-60976190D01*
X215000000Y-61071428D01*
X215047619Y-61119047D01*
X215142857Y-61166666D01*
X215238095Y-61166666D01*
X215380952Y-61119047D01*
X215952380Y-60547619D01*
X215952380Y-61166666D01*
X215214285Y-27107142D02*
X215214285Y-29392857D01*
X215214285Y-91857142D02*
X215214285Y-94142857D01*
X216357142Y-93000000D02*
X214071428Y-93000000D01*
G04 #@! TO.C,BT1*
X192428571Y-59214285D02*
X192476190Y-59357142D01*
X192523809Y-59404761D01*
X192619047Y-59452380D01*
X192761904Y-59452380D01*
X192857142Y-59404761D01*
X192904761Y-59357142D01*
X192952380Y-59261904D01*
X192952380Y-58880952D01*
X191952380Y-58880952D01*
X191952380Y-59214285D01*
X192000000Y-59309523D01*
X192047619Y-59357142D01*
X192142857Y-59404761D01*
X192238095Y-59404761D01*
X192333333Y-59357142D01*
X192380952Y-59309523D01*
X192428571Y-59214285D01*
X192428571Y-58880952D01*
X191952380Y-59738095D02*
X191952380Y-60309523D01*
X192952380Y-60023809D02*
X191952380Y-60023809D01*
X192952380Y-61166666D02*
X192952380Y-60595238D01*
X192952380Y-60880952D02*
X191952380Y-60880952D01*
X192095238Y-60785714D01*
X192190476Y-60690476D01*
X192238095Y-60595238D01*
X192214285Y-27357142D02*
X192214285Y-29642857D01*
X192464285Y-92107142D02*
X192464285Y-94392857D01*
X193607142Y-93250000D02*
X191321428Y-93250000D01*
G04 #@! TO.C,J1*
X140833333Y-49952380D02*
X140833333Y-50666666D01*
X140880952Y-50809523D01*
X140976190Y-50904761D01*
X141119047Y-50952380D01*
X141214285Y-50952380D01*
X139833333Y-50952380D02*
X140404761Y-50952380D01*
X140119047Y-50952380D02*
X140119047Y-49952380D01*
X140214285Y-50095238D01*
X140309523Y-50190476D01*
X140404761Y-50238095D01*
G04 #@! TO.C,U7*
X174952380Y-59988095D02*
X175761904Y-59988095D01*
X175857142Y-60035714D01*
X175904761Y-60083333D01*
X175952380Y-60178571D01*
X175952380Y-60369047D01*
X175904761Y-60464285D01*
X175857142Y-60511904D01*
X175761904Y-60559523D01*
X174952380Y-60559523D01*
X174952380Y-60940476D02*
X174952380Y-61607142D01*
X175952380Y-61178571D01*
G04 #@! TO.C,J2*
X258333333Y-20552380D02*
X258333333Y-21266666D01*
X258380952Y-21409523D01*
X258476190Y-21504761D01*
X258619047Y-21552380D01*
X258714285Y-21552380D01*
X257904761Y-20647619D02*
X257857142Y-20600000D01*
X257761904Y-20552380D01*
X257523809Y-20552380D01*
X257428571Y-20600000D01*
X257380952Y-20647619D01*
X257333333Y-20742857D01*
X257333333Y-20838095D01*
X257380952Y-20980952D01*
X257952380Y-21552380D01*
X257333333Y-21552380D01*
G04 #@! TO.C,J4*
X258333333Y-36552380D02*
X258333333Y-37266666D01*
X258380952Y-37409523D01*
X258476190Y-37504761D01*
X258619047Y-37552380D01*
X258714285Y-37552380D01*
X257428571Y-36885714D02*
X257428571Y-37552380D01*
X257666666Y-36504761D02*
X257904761Y-37219047D01*
X257285714Y-37219047D01*
G04 #@! TO.C,J5*
X258333333Y-44552380D02*
X258333333Y-45266666D01*
X258380952Y-45409523D01*
X258476190Y-45504761D01*
X258619047Y-45552380D01*
X258714285Y-45552380D01*
X257380952Y-44552380D02*
X257857142Y-44552380D01*
X257904761Y-45028571D01*
X257857142Y-44980952D01*
X257761904Y-44933333D01*
X257523809Y-44933333D01*
X257428571Y-44980952D01*
X257380952Y-45028571D01*
X257333333Y-45123809D01*
X257333333Y-45361904D01*
X257380952Y-45457142D01*
X257428571Y-45504761D01*
X257523809Y-45552380D01*
X257761904Y-45552380D01*
X257857142Y-45504761D01*
X257904761Y-45457142D01*
G04 #@! TO.C,J6*
X258333333Y-52552380D02*
X258333333Y-53266666D01*
X258380952Y-53409523D01*
X258476190Y-53504761D01*
X258619047Y-53552380D01*
X258714285Y-53552380D01*
X257428571Y-52552380D02*
X257619047Y-52552380D01*
X257714285Y-52600000D01*
X257761904Y-52647619D01*
X257857142Y-52790476D01*
X257904761Y-52980952D01*
X257904761Y-53361904D01*
X257857142Y-53457142D01*
X257809523Y-53504761D01*
X257714285Y-53552380D01*
X257523809Y-53552380D01*
X257428571Y-53504761D01*
X257380952Y-53457142D01*
X257333333Y-53361904D01*
X257333333Y-53123809D01*
X257380952Y-53028571D01*
X257428571Y-52980952D01*
X257523809Y-52933333D01*
X257714285Y-52933333D01*
X257809523Y-52980952D01*
X257857142Y-53028571D01*
X257904761Y-53123809D01*
G04 #@! TO.C,J7*
X258333333Y-60552380D02*
X258333333Y-61266666D01*
X258380952Y-61409523D01*
X258476190Y-61504761D01*
X258619047Y-61552380D01*
X258714285Y-61552380D01*
X257952380Y-60552380D02*
X257285714Y-60552380D01*
X257714285Y-61552380D01*
G04 #@! TO.C,J8*
X258333333Y-68552380D02*
X258333333Y-69266666D01*
X258380952Y-69409523D01*
X258476190Y-69504761D01*
X258619047Y-69552380D01*
X258714285Y-69552380D01*
X257714285Y-68980952D02*
X257809523Y-68933333D01*
X257857142Y-68885714D01*
X257904761Y-68790476D01*
X257904761Y-68742857D01*
X257857142Y-68647619D01*
X257809523Y-68600000D01*
X257714285Y-68552380D01*
X257523809Y-68552380D01*
X257428571Y-68600000D01*
X257380952Y-68647619D01*
X257333333Y-68742857D01*
X257333333Y-68790476D01*
X257380952Y-68885714D01*
X257428571Y-68933333D01*
X257523809Y-68980952D01*
X257714285Y-68980952D01*
X257809523Y-69028571D01*
X257857142Y-69076190D01*
X257904761Y-69171428D01*
X257904761Y-69361904D01*
X257857142Y-69457142D01*
X257809523Y-69504761D01*
X257714285Y-69552380D01*
X257523809Y-69552380D01*
X257428571Y-69504761D01*
X257380952Y-69457142D01*
X257333333Y-69361904D01*
X257333333Y-69171428D01*
X257380952Y-69076190D01*
X257428571Y-69028571D01*
X257523809Y-68980952D01*
G04 #@! TO.C,J9*
X258333333Y-76552380D02*
X258333333Y-77266666D01*
X258380952Y-77409523D01*
X258476190Y-77504761D01*
X258619047Y-77552380D01*
X258714285Y-77552380D01*
X257809523Y-77552380D02*
X257619047Y-77552380D01*
X257523809Y-77504761D01*
X257476190Y-77457142D01*
X257380952Y-77314285D01*
X257333333Y-77123809D01*
X257333333Y-76742857D01*
X257380952Y-76647619D01*
X257428571Y-76600000D01*
X257523809Y-76552380D01*
X257714285Y-76552380D01*
X257809523Y-76600000D01*
X257857142Y-76647619D01*
X257904761Y-76742857D01*
X257904761Y-76980952D01*
X257857142Y-77076190D01*
X257809523Y-77123809D01*
X257714285Y-77171428D01*
X257523809Y-77171428D01*
X257428571Y-77123809D01*
X257380952Y-77076190D01*
X257333333Y-76980952D01*
G04 #@! TO.C,J11*
X258809523Y-98202380D02*
X258809523Y-98916666D01*
X258857142Y-99059523D01*
X258952380Y-99154761D01*
X259095238Y-99202380D01*
X259190476Y-99202380D01*
X257809523Y-99202380D02*
X258380952Y-99202380D01*
X258095238Y-99202380D02*
X258095238Y-98202380D01*
X258190476Y-98345238D01*
X258285714Y-98440476D01*
X258380952Y-98488095D01*
X256857142Y-99202380D02*
X257428571Y-99202380D01*
X257142857Y-99202380D02*
X257142857Y-98202380D01*
X257238095Y-98345238D01*
X257333333Y-98440476D01*
X257428571Y-98488095D01*
G04 #@! TO.C,R24*
X241942857Y-76452380D02*
X242276190Y-75976190D01*
X242514285Y-76452380D02*
X242514285Y-75452380D01*
X242133333Y-75452380D01*
X242038095Y-75500000D01*
X241990476Y-75547619D01*
X241942857Y-75642857D01*
X241942857Y-75785714D01*
X241990476Y-75880952D01*
X242038095Y-75928571D01*
X242133333Y-75976190D01*
X242514285Y-75976190D01*
X241561904Y-75547619D02*
X241514285Y-75500000D01*
X241419047Y-75452380D01*
X241180952Y-75452380D01*
X241085714Y-75500000D01*
X241038095Y-75547619D01*
X240990476Y-75642857D01*
X240990476Y-75738095D01*
X241038095Y-75880952D01*
X241609523Y-76452380D01*
X240990476Y-76452380D01*
X240133333Y-75785714D02*
X240133333Y-76452380D01*
X240371428Y-75404761D02*
X240609523Y-76119047D01*
X239990476Y-76119047D01*
G04 #@! TO.C,R25*
X241942857Y-84452380D02*
X242276190Y-83976190D01*
X242514285Y-84452380D02*
X242514285Y-83452380D01*
X242133333Y-83452380D01*
X242038095Y-83500000D01*
X241990476Y-83547619D01*
X241942857Y-83642857D01*
X241942857Y-83785714D01*
X241990476Y-83880952D01*
X242038095Y-83928571D01*
X242133333Y-83976190D01*
X242514285Y-83976190D01*
X241561904Y-83547619D02*
X241514285Y-83500000D01*
X241419047Y-83452380D01*
X241180952Y-83452380D01*
X241085714Y-83500000D01*
X241038095Y-83547619D01*
X240990476Y-83642857D01*
X240990476Y-83738095D01*
X241038095Y-83880952D01*
X241609523Y-84452380D01*
X240990476Y-84452380D01*
X240085714Y-83452380D02*
X240561904Y-83452380D01*
X240609523Y-83928571D01*
X240561904Y-83880952D01*
X240466666Y-83833333D01*
X240228571Y-83833333D01*
X240133333Y-83880952D01*
X240085714Y-83928571D01*
X240038095Y-84023809D01*
X240038095Y-84261904D01*
X240085714Y-84357142D01*
X240133333Y-84404761D01*
X240228571Y-84452380D01*
X240466666Y-84452380D01*
X240561904Y-84404761D01*
X240609523Y-84357142D01*
G04 #@! TO.C,R26*
X241942857Y-92452380D02*
X242276190Y-91976190D01*
X242514285Y-92452380D02*
X242514285Y-91452380D01*
X242133333Y-91452380D01*
X242038095Y-91500000D01*
X241990476Y-91547619D01*
X241942857Y-91642857D01*
X241942857Y-91785714D01*
X241990476Y-91880952D01*
X242038095Y-91928571D01*
X242133333Y-91976190D01*
X242514285Y-91976190D01*
X241561904Y-91547619D02*
X241514285Y-91500000D01*
X241419047Y-91452380D01*
X241180952Y-91452380D01*
X241085714Y-91500000D01*
X241038095Y-91547619D01*
X240990476Y-91642857D01*
X240990476Y-91738095D01*
X241038095Y-91880952D01*
X241609523Y-92452380D01*
X240990476Y-92452380D01*
X240133333Y-91452380D02*
X240323809Y-91452380D01*
X240419047Y-91500000D01*
X240466666Y-91547619D01*
X240561904Y-91690476D01*
X240609523Y-91880952D01*
X240609523Y-92261904D01*
X240561904Y-92357142D01*
X240514285Y-92404761D01*
X240419047Y-92452380D01*
X240228571Y-92452380D01*
X240133333Y-92404761D01*
X240085714Y-92357142D01*
X240038095Y-92261904D01*
X240038095Y-92023809D01*
X240085714Y-91928571D01*
X240133333Y-91880952D01*
X240228571Y-91833333D01*
X240419047Y-91833333D01*
X240514285Y-91880952D01*
X240561904Y-91928571D01*
X240609523Y-92023809D01*
G04 #@! TO.C,R17*
X242142857Y-21952380D02*
X242476190Y-21476190D01*
X242714285Y-21952380D02*
X242714285Y-20952380D01*
X242333333Y-20952380D01*
X242238095Y-21000000D01*
X242190476Y-21047619D01*
X242142857Y-21142857D01*
X242142857Y-21285714D01*
X242190476Y-21380952D01*
X242238095Y-21428571D01*
X242333333Y-21476190D01*
X242714285Y-21476190D01*
X241190476Y-21952380D02*
X241761904Y-21952380D01*
X241476190Y-21952380D02*
X241476190Y-20952380D01*
X241571428Y-21095238D01*
X241666666Y-21190476D01*
X241761904Y-21238095D01*
X240857142Y-20952380D02*
X240190476Y-20952380D01*
X240619047Y-21952380D01*
G04 #@! TO.C,R18*
X241942857Y-28452380D02*
X242276190Y-27976190D01*
X242514285Y-28452380D02*
X242514285Y-27452380D01*
X242133333Y-27452380D01*
X242038095Y-27500000D01*
X241990476Y-27547619D01*
X241942857Y-27642857D01*
X241942857Y-27785714D01*
X241990476Y-27880952D01*
X242038095Y-27928571D01*
X242133333Y-27976190D01*
X242514285Y-27976190D01*
X240990476Y-28452380D02*
X241561904Y-28452380D01*
X241276190Y-28452380D02*
X241276190Y-27452380D01*
X241371428Y-27595238D01*
X241466666Y-27690476D01*
X241561904Y-27738095D01*
X240419047Y-27880952D02*
X240514285Y-27833333D01*
X240561904Y-27785714D01*
X240609523Y-27690476D01*
X240609523Y-27642857D01*
X240561904Y-27547619D01*
X240514285Y-27500000D01*
X240419047Y-27452380D01*
X240228571Y-27452380D01*
X240133333Y-27500000D01*
X240085714Y-27547619D01*
X240038095Y-27642857D01*
X240038095Y-27690476D01*
X240085714Y-27785714D01*
X240133333Y-27833333D01*
X240228571Y-27880952D01*
X240419047Y-27880952D01*
X240514285Y-27928571D01*
X240561904Y-27976190D01*
X240609523Y-28071428D01*
X240609523Y-28261904D01*
X240561904Y-28357142D01*
X240514285Y-28404761D01*
X240419047Y-28452380D01*
X240228571Y-28452380D01*
X240133333Y-28404761D01*
X240085714Y-28357142D01*
X240038095Y-28261904D01*
X240038095Y-28071428D01*
X240085714Y-27976190D01*
X240133333Y-27928571D01*
X240228571Y-27880952D01*
G04 #@! TO.C,R19*
X241942857Y-36452380D02*
X242276190Y-35976190D01*
X242514285Y-36452380D02*
X242514285Y-35452380D01*
X242133333Y-35452380D01*
X242038095Y-35500000D01*
X241990476Y-35547619D01*
X241942857Y-35642857D01*
X241942857Y-35785714D01*
X241990476Y-35880952D01*
X242038095Y-35928571D01*
X242133333Y-35976190D01*
X242514285Y-35976190D01*
X240990476Y-36452380D02*
X241561904Y-36452380D01*
X241276190Y-36452380D02*
X241276190Y-35452380D01*
X241371428Y-35595238D01*
X241466666Y-35690476D01*
X241561904Y-35738095D01*
X240514285Y-36452380D02*
X240323809Y-36452380D01*
X240228571Y-36404761D01*
X240180952Y-36357142D01*
X240085714Y-36214285D01*
X240038095Y-36023809D01*
X240038095Y-35642857D01*
X240085714Y-35547619D01*
X240133333Y-35500000D01*
X240228571Y-35452380D01*
X240419047Y-35452380D01*
X240514285Y-35500000D01*
X240561904Y-35547619D01*
X240609523Y-35642857D01*
X240609523Y-35880952D01*
X240561904Y-35976190D01*
X240514285Y-36023809D01*
X240419047Y-36071428D01*
X240228571Y-36071428D01*
X240133333Y-36023809D01*
X240085714Y-35976190D01*
X240038095Y-35880952D01*
G04 #@! TO.C,R20*
X241942857Y-44452380D02*
X242276190Y-43976190D01*
X242514285Y-44452380D02*
X242514285Y-43452380D01*
X242133333Y-43452380D01*
X242038095Y-43500000D01*
X241990476Y-43547619D01*
X241942857Y-43642857D01*
X241942857Y-43785714D01*
X241990476Y-43880952D01*
X242038095Y-43928571D01*
X242133333Y-43976190D01*
X242514285Y-43976190D01*
X241561904Y-43547619D02*
X241514285Y-43500000D01*
X241419047Y-43452380D01*
X241180952Y-43452380D01*
X241085714Y-43500000D01*
X241038095Y-43547619D01*
X240990476Y-43642857D01*
X240990476Y-43738095D01*
X241038095Y-43880952D01*
X241609523Y-44452380D01*
X240990476Y-44452380D01*
X240371428Y-43452380D02*
X240276190Y-43452380D01*
X240180952Y-43500000D01*
X240133333Y-43547619D01*
X240085714Y-43642857D01*
X240038095Y-43833333D01*
X240038095Y-44071428D01*
X240085714Y-44261904D01*
X240133333Y-44357142D01*
X240180952Y-44404761D01*
X240276190Y-44452380D01*
X240371428Y-44452380D01*
X240466666Y-44404761D01*
X240514285Y-44357142D01*
X240561904Y-44261904D01*
X240609523Y-44071428D01*
X240609523Y-43833333D01*
X240561904Y-43642857D01*
X240514285Y-43547619D01*
X240466666Y-43500000D01*
X240371428Y-43452380D01*
G04 #@! TO.C,R21*
X241942857Y-52452380D02*
X242276190Y-51976190D01*
X242514285Y-52452380D02*
X242514285Y-51452380D01*
X242133333Y-51452380D01*
X242038095Y-51500000D01*
X241990476Y-51547619D01*
X241942857Y-51642857D01*
X241942857Y-51785714D01*
X241990476Y-51880952D01*
X242038095Y-51928571D01*
X242133333Y-51976190D01*
X242514285Y-51976190D01*
X241561904Y-51547619D02*
X241514285Y-51500000D01*
X241419047Y-51452380D01*
X241180952Y-51452380D01*
X241085714Y-51500000D01*
X241038095Y-51547619D01*
X240990476Y-51642857D01*
X240990476Y-51738095D01*
X241038095Y-51880952D01*
X241609523Y-52452380D01*
X240990476Y-52452380D01*
X240038095Y-52452380D02*
X240609523Y-52452380D01*
X240323809Y-52452380D02*
X240323809Y-51452380D01*
X240419047Y-51595238D01*
X240514285Y-51690476D01*
X240609523Y-51738095D01*
G04 #@! TO.C,R22*
X241942857Y-60452380D02*
X242276190Y-59976190D01*
X242514285Y-60452380D02*
X242514285Y-59452380D01*
X242133333Y-59452380D01*
X242038095Y-59500000D01*
X241990476Y-59547619D01*
X241942857Y-59642857D01*
X241942857Y-59785714D01*
X241990476Y-59880952D01*
X242038095Y-59928571D01*
X242133333Y-59976190D01*
X242514285Y-59976190D01*
X241561904Y-59547619D02*
X241514285Y-59500000D01*
X241419047Y-59452380D01*
X241180952Y-59452380D01*
X241085714Y-59500000D01*
X241038095Y-59547619D01*
X240990476Y-59642857D01*
X240990476Y-59738095D01*
X241038095Y-59880952D01*
X241609523Y-60452380D01*
X240990476Y-60452380D01*
X240609523Y-59547619D02*
X240561904Y-59500000D01*
X240466666Y-59452380D01*
X240228571Y-59452380D01*
X240133333Y-59500000D01*
X240085714Y-59547619D01*
X240038095Y-59642857D01*
X240038095Y-59738095D01*
X240085714Y-59880952D01*
X240657142Y-60452380D01*
X240038095Y-60452380D01*
G04 #@! TO.C,R23*
X241942857Y-68452380D02*
X242276190Y-67976190D01*
X242514285Y-68452380D02*
X242514285Y-67452380D01*
X242133333Y-67452380D01*
X242038095Y-67500000D01*
X241990476Y-67547619D01*
X241942857Y-67642857D01*
X241942857Y-67785714D01*
X241990476Y-67880952D01*
X242038095Y-67928571D01*
X242133333Y-67976190D01*
X242514285Y-67976190D01*
X241561904Y-67547619D02*
X241514285Y-67500000D01*
X241419047Y-67452380D01*
X241180952Y-67452380D01*
X241085714Y-67500000D01*
X241038095Y-67547619D01*
X240990476Y-67642857D01*
X240990476Y-67738095D01*
X241038095Y-67880952D01*
X241609523Y-68452380D01*
X240990476Y-68452380D01*
X240657142Y-67452380D02*
X240038095Y-67452380D01*
X240371428Y-67833333D01*
X240228571Y-67833333D01*
X240133333Y-67880952D01*
X240085714Y-67928571D01*
X240038095Y-68023809D01*
X240038095Y-68261904D01*
X240085714Y-68357142D01*
X240133333Y-68404761D01*
X240228571Y-68452380D01*
X240514285Y-68452380D01*
X240609523Y-68404761D01*
X240657142Y-68357142D01*
G04 #@! TO.C,J10*
X258809523Y-84552380D02*
X258809523Y-85266666D01*
X258857142Y-85409523D01*
X258952380Y-85504761D01*
X259095238Y-85552380D01*
X259190476Y-85552380D01*
X257809523Y-85552380D02*
X258380952Y-85552380D01*
X258095238Y-85552380D02*
X258095238Y-84552380D01*
X258190476Y-84695238D01*
X258285714Y-84790476D01*
X258380952Y-84838095D01*
X257190476Y-84552380D02*
X257095238Y-84552380D01*
X257000000Y-84600000D01*
X256952380Y-84647619D01*
X256904761Y-84742857D01*
X256857142Y-84933333D01*
X256857142Y-85171428D01*
X256904761Y-85361904D01*
X256952380Y-85457142D01*
X257000000Y-85504761D01*
X257095238Y-85552380D01*
X257190476Y-85552380D01*
X257285714Y-85504761D01*
X257333333Y-85457142D01*
X257380952Y-85361904D01*
X257428571Y-85171428D01*
X257428571Y-84933333D01*
X257380952Y-84742857D01*
X257333333Y-84647619D01*
X257285714Y-84600000D01*
X257190476Y-84552380D01*
G04 #@! TO.C,J3*
X258333333Y-34452380D02*
X258333333Y-35166666D01*
X258380952Y-35309523D01*
X258476190Y-35404761D01*
X258619047Y-35452380D01*
X258714285Y-35452380D01*
X257952380Y-34452380D02*
X257333333Y-34452380D01*
X257666666Y-34833333D01*
X257523809Y-34833333D01*
X257428571Y-34880952D01*
X257380952Y-34928571D01*
X257333333Y-35023809D01*
X257333333Y-35261904D01*
X257380952Y-35357142D01*
X257428571Y-35404761D01*
X257523809Y-35452380D01*
X257809523Y-35452380D01*
X257904761Y-35404761D01*
X257952380Y-35357142D01*
G04 #@! TO.C,P1*
X175488095Y-22452380D02*
X175488095Y-21452380D01*
X175107142Y-21452380D01*
X175011904Y-21500000D01*
X174964285Y-21547619D01*
X174916666Y-21642857D01*
X174916666Y-21785714D01*
X174964285Y-21880952D01*
X175011904Y-21928571D01*
X175107142Y-21976190D01*
X175488095Y-21976190D01*
X173964285Y-22452380D02*
X174535714Y-22452380D01*
X174250000Y-22452380D02*
X174250000Y-21452380D01*
X174345238Y-21595238D01*
X174440476Y-21690476D01*
X174535714Y-21738095D01*
G04 #@! TD*
M02*
