M48
;DRILL file {KiCad 5.0.2-bee76a0~70~ubuntu18.04.1} date Sat 05 Jan 2019 03:17:00 PM GMT
;FORMAT={-:-/ absolute / inch / decimal}
FMAT,2
INCH,TZ
T1C0.0157
T2C0.0236
T3C0.0256
T4C0.0315
T5C0.0354
T6C0.0394
T7C0.0433
T8C0.0472
T9C0.0520
T10C0.0551
T11C0.0610
T12C0.0689
T13C0.0941
T14C0.1398
%
G90
G05
T1
X5.8465Y-1.2402
X5.863Y-1.67
X5.8858Y-0.9449
X5.9055Y-1.0236
X5.9055Y-2.0079
X5.9131Y-1.6333
X5.9252Y-0.9163
X5.9449Y-1.7126
X5.9547Y-1.1713
X5.9547Y-1.3287
X5.9843Y-1.0236
X5.9843Y-1.7913
X6.0236Y-1.0827
X6.0236Y-1.378
X6.0241Y-1.7525
X6.0247Y-1.9009
X6.063Y-0.9163
X6.063Y-0.9843
X6.1024Y-1.6339
X6.122Y-1.4961
X6.122Y-2.0079
X6.1382Y-1.6521
X6.1417Y-1.9094
X6.1614Y-0.9163
X6.2205Y-0.9055
X6.2205Y-1.3189
X6.2405Y-1.6644
X6.2598Y-0.9163
X6.2598Y-1.8218
X6.3189Y-0.9163
X6.3189Y-1.437
X6.3583Y-0.9055
X6.3583Y-1.6929
X6.378Y-1.4665
X6.3976Y-1.6929
X6.4173Y-0.9449
X6.437Y-1.437
X6.437Y-1.752
X6.4567Y-1.0236
X6.4567Y-1.378
X6.4764Y-1.8504
X6.4961Y-1.9094
X6.5157Y-1.811
X6.5945Y-0.8661
X6.5945Y-0.9843
X6.5945Y-1.063
X6.5945Y-1.122
X6.6339Y-1.5069
X6.6339Y-1.6142
X6.6339Y-3.8287
X6.6535Y-1.6535
X6.6929Y-0.8661
X6.6929Y-1.3189
X6.7913Y-1.7323
X6.8701Y-1.8652
X6.9685Y-0.9409
X7.0669Y-0.8484
X7.0669Y-1.9587
X7.3031Y-0.9646
X7.3031Y-1.4764
X7.3031Y-1.9291
X7.3228Y-1.5354
X7.3425Y-0.9449
X7.3622Y-2.3524
X7.3622Y-2.9144
X7.3622Y-3.1299
X7.3819Y-0.8268
X7.3819Y-1.5354
X7.4016Y-1.8307
X7.4409Y-2.9823
X7.5108Y-1.2402
X7.5394Y-1.0433
X7.5394Y-3.2087
X7.5787Y-2.9528
X7.6575Y-1.0039
X7.6575Y-1.7913
X7.6575Y-2.8543
X7.6575Y-3.1299
X7.687Y-3.5925
X7.7067Y-1.8996
X7.815Y-1.7717
X7.8346Y-1.5354
X7.8346Y-1.6732
X7.9331Y-1.4075
X7.9528Y-1.4764
X7.9528Y-1.623
X8.0118Y-1.7283
X8.0694Y-1.6314
X8.0906Y-3.5531
X8.0906Y-3.7992
X8.1299Y-3.1693
X8.1378Y-1.6644
X8.2283Y-3.2087
X8.2677Y-2.9035
X8.3661Y-3.1693
X8.5433Y-1.063
X8.5433Y-2.0374
X8.5433Y-2.9528
X8.5433Y-3.2185
X8.6417Y-2.2441
T2
X8.0118Y-0.8957
X8.0118Y-0.9547
X8.0118Y-3.6024
X8.0118Y-3.6614
T3
X5.539Y-1.8594
X5.539Y-1.9094
X5.589Y-1.8594
X5.589Y-1.9094
X5.639Y-1.8594
X5.639Y-1.9094
X5.689Y-1.8594
X5.689Y-1.9094
X5.739Y-1.8594
X5.739Y-1.9094
X5.789Y-1.8594
X5.789Y-1.9094
T4
X5.5994Y-2.6575
X5.6102Y-3.0512
X5.7087Y-3.7402
X5.8268Y-0.9941
X5.8366Y-1.3484
X5.8366Y-1.437
X5.9055Y-2.9921
X6.0236Y-3.2283
X6.0433Y-2.4803
X6.1683Y-3.4026
X6.1811Y-2.9921
X6.2402Y-2.9429
X6.2894Y-1.2303
X6.378Y-2.4016
X6.4173Y-1.811
X6.4173Y-2.6673
X6.4567Y-3.4843
X6.5325Y-3.4055
X6.6339Y-3.5827
X6.6634Y-3.3465
X6.6732Y-1.4173
X6.7126Y-3.6417
X6.7717Y-3.2185
X6.811Y-3.4252
X6.998Y-1.2598
X7.1555Y-1.1024
X7.1654Y-1.6929
X7.2047Y-3.0315
X7.2047Y-3.6614
X7.2073Y-3.3459
X7.2343Y-1.2008
X7.2638Y-2.126
X7.2835Y-3.563
X7.3026Y-3.6831
X7.3228Y-1.122
X7.3524Y-3.376
X7.3622Y-2.6969
X7.4902Y-2.5492
X7.5Y-3.3071
X7.5492Y-3.3957
X7.5945Y-1.4183
X7.5984Y-2.7756
X7.5984Y-3.5433
X7.5984Y-3.8583
X7.6083Y-2.6181
X7.7067Y-3.6614
X7.7756Y-2.8346
X7.7854Y-2.7154
X7.7913Y-3.3724
X7.8325Y-1.8964
X7.8543Y-2.4902
X7.8839Y-2.9626
X7.9134Y-2.7067
X7.9331Y-2.5591
X7.9528Y-3.1693
X7.9528Y-3.8583
X7.9646Y-2.0472
X8.0039Y-2.185
X8.0807Y-2.3031
X8.0807Y-3.0413
X8.1102Y-1.5453
X8.1201Y-1.2992
X8.1988Y-2.4705
X8.1988Y-2.7461
X8.2283Y-3.0512
X8.2579Y-1.122
X8.2579Y-2.313
X8.2677Y-1.8602
X8.3071Y-3.2776
X8.3386Y-1.3189
X8.3858Y-1.624
X8.3945Y-2.4213
X8.3957Y-2.185
X8.3957Y-3.1102
X8.4252Y-1.8701
X8.4449Y-1.6732
X8.4646Y-2.3425
X8.4744Y-2.9823
X8.4843Y-1.6142
X8.5039Y-3.8583
X8.5925Y-1.126
X8.5925Y-1.3209
X8.6417Y-1.2598
X8.6417Y-1.4665
X8.6811Y-3.1496
X8.7205Y-3.0709
X8.7205Y-3.4055
X8.8976Y-0.8661
X9.0157Y-3.0512
X9.0157Y-1.4764
X9.0157Y-1.7913
X9.0157Y-2.1063
X9.0157Y-2.4213
X9.0157Y-2.7362
X9.0157Y-3.3661
X9.0157Y-3.6811
X9.0157Y-1.1516
T5
X6.1567Y-1.7835
X6.1567Y-2.6835
X6.1567Y-2.7835
X6.7567Y-1.7835
X6.7567Y-1.9835
X6.7567Y-2.5835
X6.7567Y-2.6835
T6
X6.7913Y-0.8661
X6.7913Y-0.9661
X6.7913Y-1.0661
X6.7913Y-1.1661
X6.7913Y-1.2661
X6.7913Y-1.3661
X6.7913Y-1.4661
T7
X5.5516Y-3.8461
X5.5657Y-3.6118
X5.8909Y-3.6118
X5.9051Y-3.8461
T8
X9.Y-3.1496
X10.Y-3.1496
X6.4813Y-3.8661
X6.7864Y-3.8661
X9.Y-1.2598
X10.Y-1.2598
X9.Y-2.2047
X10.Y-2.2047
X9.Y-1.5748
X10.Y-1.5748
X9.Y-1.8898
X10.Y-1.8898
X9.Y-2.5197
X10.Y-2.5197
X9.Y-0.9449
X10.Y-0.9449
X9.Y-3.7795
X10.Y-3.7795
X9.Y-2.8346
X10.Y-2.8346
X9.Y-3.4646
X10.Y-3.4646
T9
X8.4646Y-0.9406
X8.4646Y-3.7839
X7.5591Y-0.9406
X7.5591Y-3.7839
T10
X6.4872Y-3.7165
X6.7805Y-3.7165
T11
X10.5591Y-2.1063
X10.5591Y-2.3031
X10.5591Y-2.4213
X10.5591Y-2.6181
X10.5591Y-1.1614
X10.5591Y-1.3583
X10.5591Y-1.4764
X10.5591Y-1.6732
X10.5591Y-1.7913
X10.5591Y-1.9882
X10.5591Y-3.0512
X10.5591Y-3.248
X10.5591Y-3.6811
X10.5591Y-3.878
X10.5591Y-2.7362
X10.5591Y-2.9331
X10.5591Y-0.8465
X10.5591Y-1.0433
X10.5591Y-3.3661
X10.5591Y-3.563
T12
X10.1575Y-2.2047
X10.1575Y-2.5197
X10.1575Y-1.2598
X10.1575Y-1.5748
X10.1575Y-1.8898
X10.1575Y-3.1496
X10.1575Y-3.7795
X10.1575Y-2.8346
X10.1575Y-0.9449
X10.1575Y-3.4646
T13
X8.7795Y-3.7839
X7.874Y-3.7839
T14
X8.1496Y-3.4488
X8.7795Y-1.2756
X7.2441Y-3.4488
X7.874Y-1.2756
T0
M30
